<?xml version="1.0"?>
<svg width="950" height="250" xmlns="http://www.w3.org/2000/svg">
 <g>
  <title>background</title>
  <rect x="-1" y="-1" width="952" height="252" id="canvas_background" fill="none"/>
 </g>

 <g>
  <title>Layer 1</title>
  <g id="svg_1">
   <path fill="#ffffff" d="m401.600006,205.400024c-7.600006,3.799988 -22.799988,7.599976 -42.299988,7.599976c-45.100006,0 -79.100006,-28.5 -79.100006,-80.999969c0,-50.100006 34,-84.100006 83.600006,-84.100006c19.899994,0 32.5,4.300018 38,7.100006l-5,16.899994c-7.800018,-3.799988 -19,-6.600006 -32.300018,-6.600006c-37.5,0 -62.399994,24 -62.399994,66c0,39.199982 22.600006,64.300018 61.5,64.300018c12.600006,0 25.399994,-2.600037 33.700012,-6.600037l4.299988,16.400024z" id="svg_2"/>
   <path fill="#ffffff" d="m414.899994,42.100006l20.899994,0l0,168.600006l-20.899994,0l0,-168.600006z" id="svg_3"/>
   <path fill="#ffffff" d="m522.700012,210.599976l-1.700012,-14.5l-0.700012,0c-6.399963,9 -18.799988,17.099976 -35.099976,17.099976c-23.299988,0 -35.100006,-16.399963 -35.100006,-33c0,-27.799988 24.700012,-43 69.100006,-42.699951l0,-2.400024c0,-9.5 -2.599976,-26.600006 -26.099976,-26.600006c-10.700012,0 -21.800018,3.299988 -29.900024,8.5l-4.700012,-13.799988c9.5,-6.200012 23.299988,-10.200012 37.799988,-10.200012c35.100037,0 43.700012,24 43.700012,47.000031l0,43c0,10 0.5,19.699951 1.900024,27.5l-19.200012,0l0,0.099976zm-3.100037,-58.599976c-22.799988,-0.5 -48.700012,3.599976 -48.700012,25.900024c0,13.5 9,19.899963 19.700012,19.899963c15,0 24.5,-9.5 27.799988,-19.200012c0.700012,-2.099976 1.200012,-4.5 1.200012,-6.599976l0,-20z" id="svg_4"/>
   <path fill="#ffffff" d="m568,95.700012l15.200012,58.400024c3.299988,12.799988 6.399963,24.699951 8.5,36.599976l0.700012,0c2.599976,-11.599976 6.399963,-24 10.199951,-36.299988l18.800049,-58.600006l17.599976,0l17.799988,57.499969c4.299988,13.800049 7.600037,25.900024 10.200012,37.5l0.700012,0c1.899963,-11.599976 5,-23.699951 8.799988,-37.299988l16.400024,-57.699982l20.699951,0l-37,114.899994l-19,0l-17.599976,-54.900024c-4,-12.799988 -7.400024,-24.200012 -10.200012,-37.799988l-0.5,0c-2.799988,13.799988 -6.399963,25.599976 -10.399963,38l-18.5,54.599976l-19,0l-34.700012,-114.899994l21.299988,0l0,0.000031z" id="svg_5"/>
   <path fill="#ffffff" d="m744,50.600006l0,160.000031l-20.700012,0l0,-160.000031l20.700012,0z" id="svg_6"/>
   <path fill="#ffffff" d="m905,129c0,55.099976 -33.5,84.299988 -74.299988,84.299988c-42.299988,0 -71.900024,-32.799988 -71.900024,-81.199982c0,-50.799988 31.600037,-84.100006 74.299988,-84.100006c43.600037,0 71.900024,33.5 71.900024,81zm-124.200012,2.600006c0,34.199982 18.5,64.800018 51,64.800018c32.799988,0 51.299988,-30.200012 51.299988,-66.5c0,-31.800018 -16.599976,-65.100006 -51,-65.100006c-34.199951,-0.000031 -51.299988,31.599976 -51.299988,66.799988z" id="svg_7"/>
  </g>
  <g id="svg_8">
   <path fill="#ffffff" d="m229,120.299988c-0.100006,-10 -8.200012,-18.100006 -18.300003,-18.100006c-10.099991,0 -18.300003,8.200012 -18.300003,18.300018s8.200012,18.299988 18.300003,18.299988c3.800003,0 8.300003,-2 8.300003,-2s24.399994,7.299988 17.200012,34c0,0 -4.400024,21.299988 -32.600006,21.299988l-136.70002,0c0,0 -24.899994,-0.399963 -28.899994,-32.099976l0,-0.799988c6,-3 10.199997,-9.200012 10.199997,-16.400024s-4.199997,-13.5 -10.199997,-16.5l0,-1.299988c0,0 -0.600006,-30.299988 29.399994,-31.100006c0,0 11.800003,0 15.400017,4.399994c0,0 8.399994,3.5 13.699982,-0.899994c0,0 5.100021,-1.799988 3.400009,-13.199982c0,0 -3.400009,-14.800018 16.5,-24.5c3.099991,2.5 7.099991,4.099976 11.5,4.099976c10.099991,0 18.300003,-8.199982 18.300003,-18.299988s-8.200012,-18.299988 -18.300003,-18.299988c-7.799988,0 -14.400009,4.799988 -17,11.699982c-4,1.300018 -22.599991,8.800018 -31.200005,36.200012c0,0 -58.799999,-11 -59.200001,52.5c-4.899998,3.299988 -8.099998,8.799988 -8.099998,15.199982c0,6.299988 3.200001,11.799988 8.099998,15.100037c0.300003,10.699951 4.100002,52.199951 48.600002,54.199951l145.799988,0c0,0 39.099991,-4.099976 43.500015,-47.199951c-0.100037,-0.100037 -0.199982,-32.600037 -29.400024,-44.600037l0.000031,0zm-18.199997,10.300018c-5.600006,0 -10.199997,-4.600006 -10.199997,-10.199982c0,-5.600006 4.599991,-10.200012 10.199997,-10.200012c5.599991,0 10.199997,4.600006 10.199997,10.200012c0,5.599976 -4.600006,10.199982 -10.199997,10.199982zm-83.100006,-95.300018c5.600006,0 10.199997,4.600006 10.199997,10.200012s-4.599991,10.199982 -10.199997,10.199982c-5.599991,0 -10.199997,-4.600006 -10.199997,-10.199982s4.600006,-10.200012 10.199997,-10.200012zm-87,107.400024c0,5.599976 -4.599998,10.200012 -10.199997,10.200012c-5.599998,0 -10.200001,-4.600037 -10.200001,-10.200012s4.600002,-10.200012 10.200001,-10.200012c5.599998,0.100006 10.199997,4.599976 10.199997,10.200012z" id="svg_9"/>
  </g>
  <g id="svg_10">
   <path fill="#ffffff" d="m220.399994,62c-4.100006,3.5 -9.900009,10.100006 -13,13.600006c-1.600006,1.799988 -3.300003,3.600006 -4.900009,5.399994l-1.599991,1.799988c-1,1.200012 -2.100006,2.400024 -3.199997,3.600006l-2.5,3c-2.200012,2.600006 -4.5,5.200012 -6.700012,7.899994l-1.099991,1.300018c-2.400009,2.899994 -4.900009,5.799988 -7.300003,8.699982l-2.199997,0.900024c-2,0.799988 -4,1.699982 -6.100006,2.599976l-9.899994,4.300018l-0.600006,0.600006c-2,2 -3.899994,4.099976 -5.899994,6.199982l-2.600006,2.700012l-2.5,2.600006c-1.399994,1.5 -2.699997,2.899994 -4.099991,4.399994l-5.900009,6.300018c-2.199997,2.299988 -4.300003,4.299988 -6.399994,6.699951c-3,3.300049 -5,10.400024 -7.900009,12.400024l1.900009,0c3.199997,-2 6.399994,-5.700012 9.599991,-8.799988c2.200012,-2.200012 4.400009,-4.100037 6.600006,-6.299988l6.199997,-6.000031c2,-2 4.100006,-4 6.100006,-6l3.199997,-3.199982c1.800003,-1.900024 3.699997,-3.700012 5.5,-5.600006l5.600006,-2.300018l3.399994,-1.399994c1.800003,-0.799988 3.600006,-1.5 5.300003,-2.299988l4.199997,-1.800018l0.699997,-0.899994c2.100006,-2.600006 4.300003,-5.199982 6.400009,-7.899994l2,-2.5l0.5,-0.700012c2.199997,-2.699982 4.299988,-5.399994 6.5,-8.099976l2.399994,-3c1,-1.200012 1.899994,-2.400024 2.899994,-3.600006l1.700012,-2.200012c1.399994,-1.799988 3.299988,-3.600006 4.699997,-5.399994c2.800003,-3.799988 4.900009,-13.200012 9,-17l0,0z" id="svg_11"/>
   <path fill="#ffffff" d="m131.899994,120.399994l6.099991,-6.100006c2,-2 4,-4 6,-6l3.300003,-3.299988c1.800003,-1.800018 3.600006,-3.700012 5.400009,-5.5l5.599991,-2.300018l3.400009,-1.399994c1.799988,-0.799988 3.599991,-1.5 5.399994,-2.299988l4.100006,-1.800018l0.699997,-0.899994c2.199997,-2.600006 4.300003,-5.299988 6.399994,-7.899994l2,-2.5l0.5,-0.700012c2.199997,-2.699982 4.400009,-5.399994 6.5,-8.100006l2.300003,-3c1,-1.199982 2,-2.5 2.899994,-3.699982l1.5,-1.899994c1.5,-1.900024 2.900009,-3.700012 4.300003,-5.600006c2.900009,-3.800018 5.800003,-12.200012 8.600006,-16l-3.100006,2.100006c-3.199997,3.5 -6.300003,7.099976 -9.399994,10.599976c-1.599991,1.800018 -3.099991,3.600006 -4.699997,5.400024l-1.5,1.799988c-1,1.200012 -2.099991,2.399994 -3.099991,3.600006l-2.600006,3c-2.199997,2.600006 -4.399994,5.199982 -6.600006,7.799988l-1.299988,1.600006c-2.400009,2.799988 -4.700012,5.600006 -7.100006,8.399994l-2.199997,0.899994c-2,0.800018 -4,1.700012 -6.100006,2.600006l-9.899994,4.300018l-0.600006,0.599976c-2,2.100006 -3.899994,4.100006 -5.899994,6.200012l-2.5,2.700012l-2.600006,2.699982c-1.399994,1.5 -2.800003,3 -4.199997,4.5l-5.699997,6.200012c-2.199997,2.399994 -4.100006,4.699982 -6.300003,7.100006c-3,3.299988 -6.699997,9.5 -8.800003,12.799988l0,0c2,-3 9.100006,-6.100006 12.300003,-9.200012c2.600006,-2.299988 4.699997,-4.499969 6.899994,-6.699982z" id="svg_12"/>
   <path fill="#ffffff" d="m118.899994,102.100006l5.5,-6.699982c1.800003,-2.200012 3.599991,-4.5 5.5,-6.800018l2.899994,-3.600006c1.600006,-2.099976 3.300003,-4.099976 4.900009,-6.199982l5.5,-3.200012l3.399994,-1.899994c1.699997,-1 3.399994,-2 5.100006,-3l4.299988,-2.5l0.600006,-0.899994c1.899994,-2.800018 3.699997,-5.600006 5.5,-8.5l2,-3l0.199997,-0.399994c1.800003,-2.800018 3.699997,-5.700012 5.5,-8.5l2.100006,-3.400024c0.800003,-1.299988 1.699997,-2.599976 2.5,-4l1.300003,-2c1.299988,-2 2.199997,-4 3.399994,-6c2.5,-4 5,-11.599976 7,-15.699982l0,0c-2,3.799988 -8.600006,9.100006 -11.300003,12.899994c-1.399994,1.899994 -2.599991,3.899994 -3.899994,5.799988l-1.300003,2c-0.899994,1.300018 -1.699997,2.600006 -2.600006,3.800018l-2.099991,3.100006c-2,2.899994 -3.900009,5.699982 -5.900009,8.599976l-1.099991,1.700012c-2.100006,3.100006 -4.100006,6.100006 -6.199997,9.200012l-2,1.199982c-2,1.200012 -4.100006,2.399994 -6.100006,3.600006l-9.800003,5.799988l-0.5,0.700012c-1.800003,2.299988 -3.5,4.600006 -5.300003,6.899994l-2.199997,2.899994l-2.599991,3.400024c-1.100006,1.5 -2.200012,3 -3.400009,4.399994l-5.199997,6.899994c-1.899994,2.5 -3.800003,5.100006 -5.699997,7.600006c-2.699997,3.600006 -5.900009,9.600006 -7.900009,13.299988l0,0c4.100006,-3.399994 9.100006,-6.699982 11.900009,-10.199982c1.900009,-2.400024 4,-4.800018 6,-7.300018z" id="svg_13"/>
  </g>
 </g>
</svg>