<?xml version="1.0"?>
<svg width="265" height="210" xmlns="http://www.w3.org/2000/svg">
 <g>
  <title>background</title>
  <rect x="-1" y="-1" width="267" height="212" id="canvas_background" fill="none"/>
 </g>

 <g>
  <title>Layer 1</title>
  <g id="svg_8" stroke="null">
   <path fill="#ffffff" d="m225.300018,104.499969c-0.100006,-10 -8.200012,-18.100006 -18.300003,-18.100006c-10.099991,0 -18.300003,8.20002 -18.300003,18.300018s8.200012,18.299988 18.300003,18.299988c3.800003,0 8.300003,-2 8.300003,-2s24.399994,7.299988 17.200012,34c0,0 -4.400024,21.299988 -32.600006,21.299988l-136.700016,0c0,0 -24.899998,-0.399963 -28.899998,-32.099976l0,-0.799988c6,-3 10.200001,-9.200012 10.200001,-16.400024s-4.200001,-13.5 -10.200001,-16.5l0,-1.299988c0,0 -0.600002,-30.299995 29.399998,-31.099998c0,0 11.799999,0 15.400005,4.399986c0,0 8.399986,3.5 13.700005,-0.899986c0,0 5.099998,-1.799995 3.399994,-13.199997c0,0 -3.399994,-14.800007 16.499985,-24.499996c3.100021,2.5 7.100021,4.099979 11.500015,4.099979c10.100006,0 18.299988,-8.199978 18.299988,-18.29999s-8.199982,-18.29999 -18.299988,-18.29999c-7.799995,0 -14.399994,4.79999 -17,11.699989c-4,1.300011 -22.599991,8.800011 -31.200005,36.200012c0,0 -58.799997,-11 -59.199997,52.499996c-4.900001,3.299995 -8.1,8.799995 -8.1,15.199982c0,6.299988 3.2,11.799988 8.1,15.100037c0.299999,10.699951 4.099998,52.199951 48.599998,54.199951l145.800003,0c0,0 39.100006,-4.099976 43.5,-47.199951c-0.100037,-0.100037 -0.199982,-32.600037 -29.399994,-44.600037zm-18.199997,10.300018c-5.600021,0 -10.199997,-4.600006 -10.199997,-10.199974c0,-5.600014 4.599976,-10.200027 10.199997,-10.200027c5.599991,0 10.199997,4.600014 10.199997,10.200027c0,5.599968 -4.600006,10.199974 -10.199997,10.199974zm-83.099998,-95.300018c5.599998,0 10.199989,4.60001 10.199989,10.20001s-4.599991,10.19998 -10.199989,10.19998c-5.600006,0 -10.200005,-4.599998 -10.200005,-10.19998s4.599998,-10.20001 10.200005,-10.20001zm-87.000011,107.400017c0,5.599983 -4.600002,10.20002 -10.200001,10.20002c-5.6,0 -10.200001,-4.600037 -10.200001,-10.20002s4.6,-10.200005 10.200001,-10.200005c5.599998,0.100006 10.200001,4.599976 10.200001,10.200005z" id="svg_9" stroke="null"/>
  </g>
  <g id="svg_10" stroke="null">
   <path fill="#ffffff" d="m216.700012,46.199982c-4.100037,3.5 -9.900009,10.10001 -13,13.60001c-1.600006,1.799988 -3.300018,3.599998 -4.900009,5.39999l-1.599991,1.799988c-1,1.200012 -2.100006,2.400017 -3.199997,3.600014l-2.500015,3c-2.200012,2.599998 -4.499985,5.200005 -6.699997,7.899986l-1.099991,1.300018c-2.400024,2.899994 -4.900009,5.799995 -7.300018,8.699982l-2.199982,0.900017c-2,0.799995 -4,1.699997 -6.100006,2.599983l-9.899994,4.300018l-0.600021,0.599998c-2,2 -3.899979,4.099983 -5.899979,6.199997l-2.600006,2.700005l-2.500015,2.599998c-1.399979,1.5 -2.699982,2.900002 -4.099991,4.400002l-5.899994,6.300026c-2.199997,2.299973 -4.300003,4.299973 -6.399994,6.699944c-3,3.300049 -5,10.400024 -7.900009,12.400024l1.900009,0c3.199997,-2 6.399994,-5.700012 9.599976,-8.799988c2.200027,-2.200012 4.400024,-4.100037 6.600006,-6.29998l6.199997,-6.000046c2,-2 4.100021,-4 6.100021,-6l3.199997,-3.199982c1.800003,-1.900017 3.699982,-3.700005 5.499985,-5.599998l5.600021,-2.300018l3.399979,-1.400002c1.800018,-0.79998 3.600021,-1.5 5.300018,-2.29998l4.199997,-1.800018l0.699982,-0.900002c2.100021,-2.599998 4.300018,-5.199982 6.400024,-7.899986l2,-2.5l0.499985,-0.700012c2.200012,-2.699982 4.300003,-5.400002 6.500015,-8.099983l2.399979,-3c1,-1.200005 1.899994,-2.400017 2.899994,-3.599998l1.700027,-2.20002c1.399979,-1.79998 3.299973,-3.599998 4.699997,-5.399986c2.799988,-3.799992 4.899994,-13.200012 9,-17l0,0z" id="svg_11" stroke="null"/>
   <path fill="#ffffff" d="m128.200012,104.599983l6.099991,-6.100014c2,-2 3.999985,-4 5.999985,-6l3.300003,-3.299988c1.800003,-1.800018 3.600021,-3.700012 5.400024,-5.5l5.599976,-2.300018l3.400024,-1.399994c1.799988,-0.799988 3.599976,-1.5 5.399979,-2.299988l4.100006,-1.800018l0.700012,-0.899994c2.199982,-2.600006 4.299988,-5.299988 6.399979,-7.899986l2,-2.5l0.500015,-0.700024c2.199982,-2.699978 4.399994,-5.39999 6.499985,-8.099998l2.300018,-3c1,-1.199982 2,-2.5 2.899994,-3.699982l1.499985,-1.899998c1.500015,-1.900021 2.900024,-3.700012 4.300003,-5.600002c2.900009,-3.800018 5.800003,-12.20002 8.600021,-16l-3.100006,2.1c-3.199997,3.5 -6.300003,7.099981 -9.399994,10.599981c-1.599991,1.800011 -3.100006,3.599998 -4.699997,5.400021l-1.500015,1.799988c-1,1.200012 -2.099991,2.39999 -3.099991,3.600002l-2.599991,3c-2.200012,2.60001 -4.400009,5.199989 -6.600006,7.799988l-1.299988,1.60001c-2.400024,2.799988 -4.700012,5.599998 -7.100006,8.399994l-2.200012,0.899994c-2,0.800011 -4,1.700012 -6.100006,2.600006l-9.899994,4.300018l-0.599991,0.599976c-2,2.100006 -3.899994,4.100006 -5.899994,6.200012l-2.5,2.700012l-2.600006,2.699982c-1.399994,1.5 -2.800003,3 -4.199997,4.5l-5.700005,6.200005c-2.199997,2.400002 -4.099991,4.699989 -6.299995,7.100014c-3,3.299988 -6.700005,9.5 -8.799995,12.799988l0,0c2,-3 9.099991,-6.100006 12.299995,-9.200012c2.599998,-2.299988 4.700005,-4.499969 6.899994,-6.699989l0,0.000015z" id="svg_12" stroke="null"/>
   <path fill="#ffffff" d="m115.200012,86.299988l5.499985,-6.699974c1.800003,-2.200027 3.600006,-4.5 5.500015,-6.800026l2.899994,-3.600006c1.599991,-2.099968 3.300003,-4.099968 4.900009,-6.199982l5.499985,-3.200008l3.400009,-1.900002c1.699982,-1 3.399979,-2 5.100006,-3l4.299973,-2.5l0.600021,-0.89999c1.899994,-2.800018 3.699982,-5.60001 5.499985,-8.5l2,-3l0.199997,-0.39999c1.800003,-2.800018 3.699997,-5.70002 5.500015,-8.5l2.100006,-3.40003c0.800003,-1.29999 1.699997,-2.59997 2.5,-4l1.300003,-2c1.299973,-2 2.199997,-4 3.399979,-6c2.500015,-4 5,-11.59997 7,-15.69998l0,0c-2,3.79999 -8.599991,9.10001 -11.299988,12.89999c-1.399994,1.9 -2.600006,3.9 -3.899994,5.79999l-1.300003,2c-0.899994,1.30002 -1.699997,2.60001 -2.600021,3.80002l-2.099976,3.10001c-2,2.89999 -3.900024,5.699982 -5.900024,8.599972l-1.099976,1.700008c-2.100006,3.10001 -4.100006,6.10001 -6.199997,9.20002l-2,1.199982c-2,1.200008 -4.100006,2.39999 -6.100006,3.599998l-9.800003,5.799992l-0.5,0.700008c-1.800018,2.299992 -3.499992,4.60001 -5.300003,6.899998l-2.199989,2.899994l-2.600014,3.400032c-1.099991,1.5 -2.199997,3 -3.399986,4.399986l-5.200012,6.899986c-1.899979,2.5 -3.799988,5.100014 -5.699989,7.600014c-2.700012,3.600014 -5.900009,9.600014 -7.900009,13.299988l0,0c4.100006,-3.400002 9.100006,-6.699989 11.900009,-10.199974c1.900002,-2.400032 4,-4.800026 6,-7.300026z" id="svg_13" stroke="null"/>
  </g>
 </g>
</svg>